<svg id="svg" version="1.1" xmlns="http://www.w3.org/2000/svg" xmlns:xlink="http://www.w3.org/1999/xlink" width="400" height="111.11111111111111" viewBox="0, 0, 400,111.11111111111111"><g id="svgg"><path id="path1" d="M384.333 0.922 C 384.333 1.800,384.305 1.861,383.750 2.189 C 383.429 2.378,383.167 2.583,383.167 2.644 C 383.167 2.706,382.717 2.935,382.167 3.153 C 381.617 3.371,381.167 3.605,381.167 3.672 C 381.167 3.738,380.958 3.879,380.703 3.985 C 380.448 4.091,380.038 4.390,379.793 4.650 C 379.548 4.910,379.081 5.248,378.757 5.402 C 378.432 5.556,378.167 5.740,378.167 5.810 C 378.167 5.952,376.530 6.667,376.205 6.667 C 376.092 6.667,376.000 6.738,376.000 6.826 C 376.000 6.913,375.745 7.105,375.433 7.253 C 375.121 7.401,374.832 7.649,374.789 7.803 C 374.747 7.957,374.421 8.233,374.064 8.416 C 373.708 8.600,373.342 8.831,373.250 8.931 C 373.158 9.031,372.733 9.242,372.304 9.399 C 371.875 9.556,371.275 9.905,370.970 10.173 C 370.666 10.442,370.372 10.663,370.316 10.664 C 370.261 10.665,369.961 10.892,369.650 11.167 C 369.338 11.443,368.946 11.787,368.777 11.932 C 368.414 12.245,366.839 12.996,366.542 12.998 C 366.427 12.999,366.333 13.057,366.333 13.126 C 366.333 13.195,366.090 13.360,365.792 13.491 C 365.495 13.623,364.995 14.016,364.682 14.365 C 364.368 14.714,364.012 15.000,363.889 15.000 C 363.767 15.000,363.667 15.061,363.667 15.136 C 363.667 15.284,362.040 16.000,361.705 16.000 C 361.592 16.000,361.500 16.069,361.500 16.154 C 361.500 16.238,361.243 16.392,360.930 16.496 C 360.616 16.599,360.073 16.980,359.722 17.342 C 359.371 17.704,358.992 18.000,358.881 18.000 C 358.770 18.000,358.601 18.144,358.507 18.319 C 358.413 18.495,357.942 18.769,357.460 18.927 C 356.978 19.086,356.546 19.269,356.500 19.335 C 356.454 19.400,356.174 19.578,355.877 19.730 C 355.580 19.882,355.222 20.182,355.082 20.396 C 354.942 20.609,354.549 20.926,354.210 21.100 C 353.870 21.274,353.445 21.548,353.265 21.708 C 353.085 21.869,352.868 22.000,352.783 22.000 C 352.606 22.000,351.000 23.645,351.000 23.827 C 351.000 23.893,350.811 24.033,350.580 24.138 C 350.349 24.243,350.088 24.520,349.999 24.752 C 349.911 24.985,349.726 25.218,349.589 25.271 C 349.452 25.323,349.170 25.715,348.962 26.142 C 348.754 26.568,348.531 26.956,348.468 27.004 C 348.404 27.052,348.268 27.465,348.167 27.921 C 348.065 28.377,347.873 29.073,347.740 29.468 C 347.426 30.398,348.007 33.687,348.590 34.278 C 348.696 34.385,348.882 34.946,349.005 35.525 C 349.255 36.701,350.047 37.717,350.875 37.922 C 351.127 37.985,351.333 38.103,351.333 38.185 C 351.333 38.266,351.478 38.333,351.655 38.333 C 352.003 38.333,354.696 39.176,354.833 39.328 C 354.962 39.470,356.730 40.167,356.962 40.167 C 357.074 40.167,357.168 40.260,357.169 40.375 C 357.171 40.504,357.218 40.520,357.294 40.417 C 357.362 40.325,357.979 40.065,358.667 39.839 C 359.354 39.612,360.009 39.337,360.122 39.228 C 360.236 39.118,360.836 38.861,361.456 38.656 C 362.076 38.451,362.621 38.231,362.667 38.166 C 362.712 38.101,363.050 37.952,363.417 37.834 C 363.828 37.702,364.447 37.255,365.031 36.669 C 365.752 35.946,366.200 35.649,366.906 35.427 C 367.416 35.267,367.833 35.068,367.833 34.984 C 367.833 34.901,367.965 34.832,368.125 34.830 C 368.285 34.828,368.604 34.679,368.833 34.500 C 369.063 34.321,369.303 34.172,369.367 34.170 C 369.432 34.168,369.807 33.842,370.201 33.446 C 370.903 32.739,371.832 32.167,372.276 32.167 C 372.399 32.167,372.500 32.098,372.500 32.013 C 372.500 31.929,372.871 31.737,373.324 31.586 C 374.127 31.320,375.333 30.307,375.333 29.899 C 375.333 29.793,375.465 29.657,375.625 29.599 C 376.095 29.426,376.896 28.961,377.136 28.722 C 377.257 28.600,377.471 28.500,377.611 28.500 C 378.046 28.500,379.120 27.829,380.013 27.000 C 380.441 26.602,380.699 26.427,381.542 25.958 C 381.748 25.844,381.954 25.705,382.000 25.650 C 382.046 25.595,382.590 25.382,383.208 25.178 C 383.827 24.973,384.333 24.742,384.333 24.664 C 384.333 24.586,384.480 24.476,384.658 24.419 C 384.837 24.363,385.201 24.114,385.467 23.866 C 385.733 23.619,386.281 23.235,386.684 23.012 C 387.087 22.790,387.455 22.552,387.502 22.484 C 387.548 22.416,387.968 22.210,388.434 22.026 C 388.945 21.825,389.686 21.306,390.301 20.721 C 391.756 19.335,391.841 19.272,392.652 19.005 C 393.419 18.752,393.794 18.490,394.864 17.458 C 395.221 17.115,395.572 16.833,395.645 16.833 C 395.908 16.833,398.044 14.572,398.203 14.125 C 398.351 13.710,398.442 13.667,399.183 13.667 L 400.000 13.667 400.000 9.833 L 400.000 6.000 399.203 6.000 L 398.407 6.000 398.078 5.153 C 397.898 4.688,397.635 4.182,397.495 4.028 C 397.355 3.875,397.056 3.487,396.830 3.167 C 396.333 2.461,395.659 1.846,395.375 1.839 C 395.234 1.835,395.167 1.536,395.167 0.917 L 395.167 0.000 393.583 0.000 L 392.000 0.000 392.000 0.917 C 392.000 1.421,392.060 1.833,392.133 1.833 C 392.207 1.833,392.431 2.171,392.631 2.583 C 392.832 2.996,393.111 3.333,393.253 3.333 C 393.395 3.333,393.552 3.442,393.603 3.575 C 393.654 3.707,394.103 3.907,394.600 4.018 C 395.759 4.278,395.791 4.325,395.991 6.082 C 396.083 6.894,396.233 7.605,396.325 7.662 C 396.887 8.009,396.872 12.500,396.309 12.500 C 396.244 12.500,396.139 12.931,396.075 13.458 C 395.936 14.605,395.808 14.792,395.067 14.931 C 394.755 14.989,394.500 15.104,394.500 15.185 C 394.500 15.267,394.380 15.333,394.234 15.333 C 393.462 15.333,392.500 16.440,392.500 17.328 C 392.500 17.560,392.241 17.651,391.137 17.807 C 390.165 17.945,389.686 18.096,389.464 18.333 C 389.293 18.517,389.073 18.667,388.974 18.667 C 388.683 18.667,387.500 20.014,387.500 20.346 C 387.500 20.643,386.262 21.333,385.729 21.333 C 385.603 21.333,385.500 21.408,385.500 21.500 C 385.500 21.592,385.322 21.667,385.104 21.667 C 384.426 21.667,383.535 22.140,383.225 22.664 C 383.062 22.941,382.869 23.167,382.797 23.167 C 382.725 23.167,382.667 23.319,382.667 23.505 C 382.667 23.691,382.573 23.870,382.458 23.902 C 382.344 23.934,381.653 24.091,380.924 24.252 C 380.195 24.413,379.496 24.647,379.371 24.772 C 379.245 24.898,379.038 25.000,378.910 25.000 C 378.267 25.000,377.507 25.582,377.140 26.356 C 376.781 27.111,376.704 27.172,375.860 27.361 C 375.366 27.471,374.877 27.646,374.773 27.748 C 374.669 27.851,374.451 27.985,374.290 28.046 C 374.129 28.107,373.911 28.347,373.805 28.579 C 373.700 28.810,373.551 29.000,373.475 29.000 C 373.399 29.000,373.292 29.286,373.236 29.636 L 373.134 30.272 371.879 30.452 C 371.188 30.552,370.577 30.706,370.520 30.796 C 370.463 30.885,370.154 31.014,369.833 31.082 C 368.584 31.349,367.927 31.871,367.674 32.799 C 367.485 33.492,366.949 33.833,366.050 33.833 C 365.748 33.833,365.500 33.908,365.500 34.000 C 365.500 34.092,365.359 34.167,365.187 34.167 C 364.744 34.167,363.710 34.621,363.551 34.886 C 363.477 35.009,363.173 35.251,362.875 35.424 C 362.577 35.597,362.293 35.865,362.244 36.020 C 362.100 36.471,361.006 36.895,359.792 36.969 C 359.173 37.007,358.667 37.104,358.667 37.185 C 358.667 37.267,357.917 37.333,357.000 37.333 C 356.000 37.333,355.333 37.267,355.333 37.167 C 355.333 37.075,355.090 37.000,354.792 37.001 C 354.494 37.001,353.491 36.914,352.564 36.807 L 350.879 36.612 350.767 35.021 C 350.705 34.145,350.572 33.378,350.471 33.315 C 350.132 33.106,350.207 27.167,350.551 26.975 C 350.706 26.888,350.833 26.714,350.833 26.588 C 350.833 26.463,351.060 26.310,351.336 26.249 C 352.003 26.103,352.929 25.209,353.067 24.578 C 353.184 24.042,353.985 23.167,354.360 23.166 C 355.354 23.162,356.667 22.286,356.667 21.627 C 356.667 21.465,356.737 21.333,356.822 21.333 C 356.908 21.333,357.025 21.183,357.083 21.000 C 357.157 20.766,357.336 20.667,357.678 20.667 C 357.947 20.667,358.167 20.592,358.167 20.500 C 358.167 20.408,358.341 20.333,358.554 20.333 C 359.971 20.333,362.045 19.124,362.486 18.042 C 362.608 17.744,362.804 17.500,362.923 17.500 C 363.042 17.500,363.164 17.428,363.194 17.339 C 363.225 17.250,363.771 17.069,364.408 16.936 C 365.520 16.703,365.611 16.646,366.676 15.513 C 367.287 14.864,367.909 14.333,368.060 14.333 C 368.210 14.333,368.333 14.268,368.333 14.189 C 368.333 14.013,369.928 13.333,370.342 13.333 C 370.505 13.333,370.664 13.270,370.694 13.193 C 370.725 13.115,370.974 12.946,371.248 12.816 C 371.523 12.686,371.850 12.365,371.977 12.101 C 372.420 11.176,373.020 10.724,373.965 10.601 C 375.007 10.466,375.668 10.200,375.968 9.794 C 376.088 9.632,376.269 9.500,376.371 9.500 C 376.474 9.500,376.881 9.162,377.276 8.750 C 377.671 8.338,378.108 8.000,378.247 8.000 C 378.386 8.000,378.500 7.940,378.500 7.867 C 378.500 7.707,379.349 7.395,380.199 7.243 C 380.928 7.113,382.006 6.164,382.323 5.375 C 382.460 5.033,382.656 4.833,382.854 4.833 C 383.026 4.833,383.167 4.764,383.167 4.680 C 383.167 4.596,383.410 4.474,383.708 4.410 C 384.445 4.251,385.205 3.848,385.468 3.475 C 385.588 3.305,385.794 3.167,385.926 3.167 C 386.590 3.167,387.500 1.866,387.500 0.917 L 387.500 0.000 385.917 0.000 L 384.333 0.000 384.333 0.922 " stroke="none" fill="#74acec" fill-rule="evenodd"></path></g></svg>